<svg xmlns="http://www.w3.org/2000/svg" version="1.1" xmlns:xlink="http://www.w3.org/1999/xlink" xmlns:svgjs="http://svgjs.dev/svgjs" width="1440" height="560" preserveAspectRatio="none" viewBox="0 0 1440 560">
    <g mask="url(&quot;#SvgjsMask1000&quot;)" fill="none">
        <path d="M-40.42 373.12L-40.42 373.12" stroke="#132e65" stroke-width="1.5"></path>
        <path d="M-40.42 373.12L44.11 357.97" stroke="#132e65" stroke-width="1.5"></path>
        <path d="M-40.42 373.12L-105.9 513.88" stroke="#132e65" stroke-width="1.5"></path>
        <path d="M-40.42 373.12L43.39 508.12" stroke="#132e65" stroke-width="1.5"></path>
        <path d="M-40.42 373.12L194.75 360.01" stroke="#132e65" stroke-width="1.5"></path>
        <path d="M-40.42 373.12L204.35 524.34" stroke="#132e65" stroke-width="1.5"></path>
        <path d="M-105.9 513.88L-105.9 513.88" stroke="#132e65" stroke-width="1.5"></path>
        <path d="M-105.9 513.88L43.39 508.12" stroke="#132e65" stroke-width="1.5"></path>
        <path d="M-62.49 692L-62.49 692" stroke="#132e65" stroke-width="1.5"></path>
        <path d="M-62.49 692L83.75 693.07" stroke="#132e65" stroke-width="1.5"></path>
        <path d="M-62.49 692L-105.9 513.88" stroke="#132e65" stroke-width="1.5"></path>
        <path d="M-62.49 692L43.39 508.12" stroke="#132e65" stroke-width="1.5"></path>
        <path d="M-62.49 692L208.23 650.96" stroke="#132e65" stroke-width="1.5"></path>
        <path d="M-62.49 692L204.35 524.34" stroke="#132e65" stroke-width="1.5"></path>
        <path d="M44.11 357.97L44.11 357.97" stroke="#132e65" stroke-width="1.5"></path>
        <path d="M44.11 357.97L43.39 508.12" stroke="#132e65" stroke-width="1.5"></path>
        <path d="M44.11 357.97L194.75 360.01" stroke="#132e65" stroke-width="1.5"></path>
        <path d="M43.39 508.12L43.39 508.12" stroke="#132e65" stroke-width="1.5"></path>
        <path d="M43.39 508.12L204.35 524.34" stroke="#132e65" stroke-width="1.5"></path>
        <path d="M43.39 508.12L83.75 693.07" stroke="#132e65" stroke-width="1.5"></path>
        <path d="M43.39 508.12L194.75 360.01" stroke="#132e65" stroke-width="1.5"></path>
        <path d="M83.75 693.07L83.75 693.07" stroke="#132e65" stroke-width="1.5"></path>
        <path d="M83.75 693.07L208.23 650.96" stroke="#132e65" stroke-width="1.5"></path>
        <path d="M83.75 693.07L204.35 524.34" stroke="#132e65" stroke-width="1.5"></path>
        <path d="M83.75 693.07L-105.9 513.88" stroke="#132e65" stroke-width="1.5"></path>
        <path d="M194.75 360.01L194.75 360.01" stroke="#132e65" stroke-width="1.5"></path>
        <path d="M194.75 360.01L342.23 382.65" stroke="#132e65" stroke-width="1.5"></path>
        <path d="M204.35 524.34L204.35 524.34" stroke="#132e65" stroke-width="1.5"></path>
        <path d="M204.35 524.34L208.23 650.96" stroke="#132e65" stroke-width="1.5"></path>
        <path d="M204.35 524.34L356.29 502.48" stroke="#132e65" stroke-width="1.5"></path>
        <path d="M204.35 524.34L194.75 360.01" stroke="#132e65" stroke-width="1.5"></path>
        <path d="M204.35 524.34L342.23 382.65" stroke="#132e65" stroke-width="1.5"></path>
        <path d="M208.23 650.96L208.23 650.96" stroke="#132e65" stroke-width="1.5"></path>
        <path d="M208.23 650.96L347.29 709.54" stroke="#132e65" stroke-width="1.5"></path>
        <path d="M208.23 650.96L356.29 502.48" stroke="#132e65" stroke-width="1.5"></path>
        <path d="M342.23 382.65L342.23 382.65" stroke="#132e65" stroke-width="1.5"></path>
        <path d="M342.23 382.65L356.29 502.48" stroke="#132e65" stroke-width="1.5"></path>
        <path d="M342.23 382.65L495.32 373.24" stroke="#132e65" stroke-width="1.5"></path>
        <path d="M342.23 382.65L528.31 493.67" stroke="#132e65" stroke-width="1.5"></path>
        <path d="M356.29 502.48L356.29 502.48" stroke="#132e65" stroke-width="1.5"></path>
        <path d="M356.29 502.48L528.31 493.67" stroke="#132e65" stroke-width="1.5"></path>
        <path d="M347.29 709.54L347.29 709.54" stroke="#132e65" stroke-width="1.5"></path>
        <path d="M347.29 709.54L532.12 667.49" stroke="#132e65" stroke-width="1.5"></path>
        <path d="M347.29 709.54L356.29 502.48" stroke="#132e65" stroke-width="1.5"></path>
        <path d="M347.29 709.54L204.35 524.34" stroke="#132e65" stroke-width="1.5"></path>
        <path d="M347.29 709.54L83.75 693.07" stroke="#132e65" stroke-width="1.5"></path>
        <path d="M495.32 373.24L495.32 373.24" stroke="#132e65" stroke-width="1.5"></path>
        <path d="M495.32 373.24L528.31 493.67" stroke="#132e65" stroke-width="1.5"></path>
        <path d="M528.31 493.67L528.31 493.67" stroke="#132e65" stroke-width="1.5"></path>
        <path d="M528.31 493.67L659.91 560.5" stroke="#132e65" stroke-width="1.5"></path>
        <path d="M528.31 493.67L532.12 667.49" stroke="#132e65" stroke-width="1.5"></path>
        <path d="M528.31 493.67L681.63 388.06" stroke="#132e65" stroke-width="1.5"></path>
        <path d="M532.12 667.49L532.12 667.49" stroke="#132e65" stroke-width="1.5"></path>
        <path d="M532.12 667.49L657.77 689.03" stroke="#132e65" stroke-width="1.5"></path>
        <path d="M532.12 667.49L659.91 560.5" stroke="#132e65" stroke-width="1.5"></path>
        <path d="M532.12 667.49L356.29 502.48" stroke="#132e65" stroke-width="1.5"></path>
        <path d="M672.09 245.16L672.09 245.16" stroke="#132e65" stroke-width="1.5"></path>
        <path d="M672.09 245.16L801.02 213.32" stroke="#132e65" stroke-width="1.5"></path>
        <path d="M672.09 245.16L681.63 388.06" stroke="#132e65" stroke-width="1.5"></path>
        <path d="M681.63 388.06L681.63 388.06" stroke="#132e65" stroke-width="1.5"></path>
        <path d="M681.63 388.06L659.91 560.5" stroke="#132e65" stroke-width="1.5"></path>
        <path d="M681.63 388.06L833.62 494.87" stroke="#132e65" stroke-width="1.5"></path>
        <path d="M659.91 560.5L659.91 560.5" stroke="#132e65" stroke-width="1.5"></path>
        <path d="M659.91 560.5L657.77 689.03" stroke="#132e65" stroke-width="1.5"></path>
        <path d="M657.77 689.03L657.77 689.03" stroke="#132e65" stroke-width="1.5"></path>
        <path d="M657.77 689.03L850.59 678.28" stroke="#132e65" stroke-width="1.5"></path>
        <path d="M657.77 689.03L528.31 493.67" stroke="#132e65" stroke-width="1.5"></path>
        <path d="M657.77 689.03L833.62 494.87" stroke="#132e65" stroke-width="1.5"></path>
        <path d="M801.02 213.32L801.02 213.32" stroke="#132e65" stroke-width="1.5"></path>
        <path d="M801.02 213.32L983.31 213.04" stroke="#132e65" stroke-width="1.5"></path>
        <path d="M801.02 213.32L681.63 388.06" stroke="#132e65" stroke-width="1.5"></path>
        <path d="M801.02 213.32L959.64 383.72" stroke="#132e65" stroke-width="1.5"></path>
        <path d="M833.62 494.87L833.62 494.87" stroke="#132e65" stroke-width="1.5"></path>
        <path d="M833.62 494.87L959.64 383.72" stroke="#132e65" stroke-width="1.5"></path>
        <path d="M833.62 494.87L850.59 678.28" stroke="#132e65" stroke-width="1.5"></path>
        <path d="M833.62 494.87L659.91 560.5" stroke="#132e65" stroke-width="1.5"></path>
        <path d="M833.62 494.87L1010.27 556.52" stroke="#132e65" stroke-width="1.5"></path>
        <path d="M850.59 678.28L850.59 678.28" stroke="#132e65" stroke-width="1.5"></path>
        <path d="M850.59 678.28L939.92 692.51" stroke="#132e65" stroke-width="1.5"></path>
        <path d="M850.59 678.28L1010.27 556.52" stroke="#132e65" stroke-width="1.5"></path>
        <path d="M970.81 -39.11L970.81 -39.11" stroke="#132e65" stroke-width="1.5"></path>
        <path d="M970.81 -39.11L1006.67 95.77" stroke="#132e65" stroke-width="1.5"></path>
        <path d="M970.81 -39.11L1114.43 -81.19" stroke="#132e65" stroke-width="1.5"></path>
        <path d="M970.81 -39.11L1102.73 92.36" stroke="#132e65" stroke-width="1.5"></path>
        <path d="M970.81 -39.11L983.31 213.04" stroke="#132e65" stroke-width="1.5"></path>
        <path d="M1006.67 95.77L1006.67 95.77" stroke="#132e65" stroke-width="1.5"></path>
        <path d="M1006.67 95.77L1102.73 92.36" stroke="#132e65" stroke-width="1.5"></path>
        <path d="M1006.67 95.77L983.31 213.04" stroke="#132e65" stroke-width="1.5"></path>
        <path d="M983.31 213.04L983.31 213.04" stroke="#132e65" stroke-width="1.5"></path>
        <path d="M983.31 213.04L1139.08 201.98" stroke="#132e65" stroke-width="1.5"></path>
        <path d="M983.31 213.04L1102.73 92.36" stroke="#132e65" stroke-width="1.5"></path>
        <path d="M983.31 213.04L959.64 383.72" stroke="#132e65" stroke-width="1.5"></path>
        <path d="M983.31 213.04L1114.16 397.9" stroke="#132e65" stroke-width="1.5"></path>
        <path d="M959.64 383.72L959.64 383.72" stroke="#132e65" stroke-width="1.5"></path>
        <path d="M959.64 383.72L1114.16 397.9" stroke="#132e65" stroke-width="1.5"></path>
        <path d="M959.64 383.72L1010.27 556.52" stroke="#132e65" stroke-width="1.5"></path>
        <path d="M1010.27 556.52L1010.27 556.52" stroke="#132e65" stroke-width="1.5"></path>
        <path d="M1010.27 556.52L1106.85 545.38" stroke="#132e65" stroke-width="1.5"></path>
        <path d="M1010.27 556.52L939.92 692.51" stroke="#132e65" stroke-width="1.5"></path>
        <path d="M1010.27 556.52L1114.16 397.9" stroke="#132e65" stroke-width="1.5"></path>
        <path d="M939.92 692.51L939.92 692.51" stroke="#132e65" stroke-width="1.5"></path>
        <path d="M939.92 692.51L1160.34 711.35" stroke="#132e65" stroke-width="1.5"></path>
        <path d="M939.92 692.51L1106.85 545.38" stroke="#132e65" stroke-width="1.5"></path>
        <path d="M939.92 692.51L833.62 494.87" stroke="#132e65" stroke-width="1.5"></path>
        <path d="M939.92 692.51L657.77 689.03" stroke="#132e65" stroke-width="1.5"></path>
        <path d="M1114.43 -81.19L1114.43 -81.19" stroke="#132e65" stroke-width="1.5"></path>
        <path d="M1114.43 -81.19L1244 -78.24" stroke="#132e65" stroke-width="1.5"></path>
        <path d="M1114.43 -81.19L1102.73 92.36" stroke="#132e65" stroke-width="1.5"></path>
        <path d="M1114.43 -81.19L1006.67 95.77" stroke="#132e65" stroke-width="1.5"></path>
        <path d="M1114.43 -81.19L1300.8 85.8" stroke="#132e65" stroke-width="1.5"></path>
        <path d="M1102.73 92.36L1102.73 92.36" stroke="#132e65" stroke-width="1.5"></path>
        <path d="M1102.73 92.36L1139.08 201.98" stroke="#132e65" stroke-width="1.5"></path>
        <path d="M1139.08 201.98L1139.08 201.98" stroke="#132e65" stroke-width="1.5"></path>
        <path d="M1139.08 201.98L1268.71 240.98" stroke="#132e65" stroke-width="1.5"></path>
        <path d="M1114.16 397.9L1114.16 397.9" stroke="#132e65" stroke-width="1.5"></path>
        <path d="M1114.16 397.9L1106.85 545.38" stroke="#132e65" stroke-width="1.5"></path>
        <path d="M1114.16 397.9L1272.23 359.95" stroke="#132e65" stroke-width="1.5"></path>
        <path d="M1114.16 397.9L1139.08 201.98" stroke="#132e65" stroke-width="1.5"></path>
        <path d="M1106.85 545.38L1106.85 545.38" stroke="#132e65" stroke-width="1.5"></path>
        <path d="M1106.85 545.38L1160.34 711.35" stroke="#132e65" stroke-width="1.5"></path>
        <path d="M1106.85 545.38L1289.43 517.08" stroke="#132e65" stroke-width="1.5"></path>
        <path d="M1106.85 545.38L959.64 383.72" stroke="#132e65" stroke-width="1.5"></path>
        <path d="M1160.34 711.35L1160.34 711.35" stroke="#132e65" stroke-width="1.5"></path>
        <path d="M1160.34 711.35L1305.2 646.9" stroke="#132e65" stroke-width="1.5"></path>
        <path d="M1160.34 711.35L1010.27 556.52" stroke="#132e65" stroke-width="1.5"></path>
        <path d="M1160.34 711.35L1289.43 517.08" stroke="#132e65" stroke-width="1.5"></path>
        <path d="M1244 -78.24L1244 -78.24" stroke="#132e65" stroke-width="1.5"></path>
        <path d="M1244 -78.24L1400.78 -88.2" stroke="#132e65" stroke-width="1.5"></path>
        <path d="M1244 -78.24L1300.8 85.8" stroke="#132e65" stroke-width="1.5"></path>
        <path d="M1300.8 85.8L1300.8 85.8" stroke="#132e65" stroke-width="1.5"></path>
        <path d="M1300.8 85.8L1397.98 72.97" stroke="#132e65" stroke-width="1.5"></path>
        <path d="M1300.8 85.8L1418.38 190.16" stroke="#132e65" stroke-width="1.5"></path>
        <path d="M1300.8 85.8L1268.71 240.98" stroke="#132e65" stroke-width="1.5"></path>
        <path d="M1300.8 85.8L1102.73 92.36" stroke="#132e65" stroke-width="1.5"></path>
        <path d="M1300.8 85.8L1139.08 201.98" stroke="#132e65" stroke-width="1.5"></path>
        <path d="M1268.71 240.98L1268.71 240.98" stroke="#132e65" stroke-width="1.5"></path>
        <path d="M1268.71 240.98L1272.23 359.95" stroke="#132e65" stroke-width="1.5"></path>
        <path d="M1272.23 359.95L1272.23 359.95" stroke="#132e65" stroke-width="1.5"></path>
        <path d="M1272.23 359.95L1289.43 517.08" stroke="#132e65" stroke-width="1.5"></path>
        <path d="M1272.23 359.95L1443.24 408.11" stroke="#132e65" stroke-width="1.5"></path>
        <path d="M1272.23 359.95L1139.08 201.98" stroke="#132e65" stroke-width="1.5"></path>
        <path d="M1289.43 517.08L1289.43 517.08" stroke="#132e65" stroke-width="1.5"></path>
        <path d="M1289.43 517.08L1305.2 646.9" stroke="#132e65" stroke-width="1.5"></path>
        <path d="M1289.43 517.08L1445.39 554.39" stroke="#132e65" stroke-width="1.5"></path>
        <path d="M1289.43 517.08L1405.58 656.5" stroke="#132e65" stroke-width="1.5"></path>
        <path d="M1305.2 646.9L1305.2 646.9" stroke="#132e65" stroke-width="1.5"></path>
        <path d="M1305.2 646.9L1405.58 656.5" stroke="#132e65" stroke-width="1.5"></path>
        <path d="M1305.2 646.9L1445.39 554.39" stroke="#132e65" stroke-width="1.5"></path>
        <path d="M1305.2 646.9L1106.85 545.38" stroke="#132e65" stroke-width="1.5"></path>
        <path d="M1305.2 646.9L1443.24 408.11" stroke="#132e65" stroke-width="1.5"></path>
        <path d="M1400.78 -88.2L1400.78 -88.2" stroke="#132e65" stroke-width="1.5"></path>
        <path d="M1400.78 -88.2L1397.98 72.97" stroke="#132e65" stroke-width="1.5"></path>
        <path d="M1400.78 -88.2L1300.8 85.8" stroke="#132e65" stroke-width="1.5"></path>
        <path d="M1400.78 -88.2L1599.74 -40" stroke="#132e65" stroke-width="1.5"></path>
        <path d="M1397.98 72.97L1397.98 72.97" stroke="#132e65" stroke-width="1.5"></path>
        <path d="M1397.98 72.97L1418.38 190.16" stroke="#132e65" stroke-width="1.5"></path>
        <path d="M1397.98 72.97L1551.76 198.78" stroke="#132e65" stroke-width="1.5"></path>
        <path d="M1397.98 72.97L1605.82 79.23" stroke="#132e65" stroke-width="1.5"></path>
        <path d="M1397.98 72.97L1268.71 240.98" stroke="#132e65" stroke-width="1.5"></path>
        <path d="M1418.38 190.16L1418.38 190.16" stroke="#132e65" stroke-width="1.5"></path>
        <path d="M1418.38 190.16L1551.76 198.78" stroke="#132e65" stroke-width="1.5"></path>
        <path d="M1418.38 190.16L1268.71 240.98" stroke="#132e65" stroke-width="1.5"></path>
        <path d="M1443.24 408.11L1443.24 408.11" stroke="#132e65" stroke-width="1.5"></path>
        <path d="M1443.24 408.11L1445.39 554.39" stroke="#132e65" stroke-width="1.5"></path>
        <path d="M1443.24 408.11L1598.59 338.7" stroke="#132e65" stroke-width="1.5"></path>
        <path d="M1445.39 554.39L1445.39 554.39" stroke="#132e65" stroke-width="1.5"></path>
        <path d="M1445.39 554.39L1405.58 656.5" stroke="#132e65" stroke-width="1.5"></path>
        <path d="M1405.58 656.5L1405.58 656.5" stroke="#132e65" stroke-width="1.5"></path>
        <path d="M1405.58 656.5L1597.24 702.04" stroke="#132e65" stroke-width="1.5"></path>
        <path d="M1599.74 -40L1599.74 -40" stroke="#132e65" stroke-width="1.5"></path>
        <path d="M1599.74 -40L1605.82 79.23" stroke="#132e65" stroke-width="1.5"></path>
        <path d="M1605.82 79.23L1605.82 79.23" stroke="#132e65" stroke-width="1.5"></path>
        <path d="M1605.82 79.23L1551.76 198.78" stroke="#132e65" stroke-width="1.5"></path>
        <path d="M1551.76 198.78L1551.76 198.78" stroke="#132e65" stroke-width="1.5"></path>
        <path d="M1598.59 338.7L1598.59 338.7" stroke="#132e65" stroke-width="1.5"></path>
        <path d="M1598.59 338.7L1551.76 198.78" stroke="#132e65" stroke-width="1.5"></path>
        <path d="M1598.59 338.7L1600.77 535.89" stroke="#132e65" stroke-width="1.5"></path>
        <path d="M1598.59 338.7L1418.38 190.16" stroke="#132e65" stroke-width="1.5"></path>
        <path d="M1598.59 338.7L1605.82 79.23" stroke="#132e65" stroke-width="1.5"></path>
        <path d="M1598.59 338.7L1445.39 554.39" stroke="#132e65" stroke-width="1.5"></path>
        <path d="M1600.77 535.89L1600.77 535.89" stroke="#132e65" stroke-width="1.5"></path>
        <path d="M1600.77 535.89L1445.39 554.39" stroke="#132e65" stroke-width="1.5"></path>
        <path d="M1600.77 535.89L1597.24 702.04" stroke="#132e65" stroke-width="1.5"></path>
        <path d="M1600.77 535.89L1443.24 408.11" stroke="#132e65" stroke-width="1.5"></path>
        <path d="M1597.24 702.04L1597.24 702.04" stroke="#132e65" stroke-width="1.5"></path>
        <circle r="5" cx="-40.42" cy="373.12" fill="#132e65"></circle>
        <circle r="5" cx="-105.9" cy="513.88" fill="#132e65"></circle>
        <circle r="5" cx="-62.49" cy="692" fill="#132e65"></circle>
        <circle r="5" cx="44.11" cy="357.97" fill="#132e65"></circle>
        <circle r="5" cx="43.39" cy="508.12" fill="#132e65"></circle>
        <circle r="5" cx="83.75" cy="693.07" fill="#132e65"></circle>
        <circle r="5" cx="194.75" cy="360.01" fill="#132e65"></circle>
        <circle r="5" cx="204.35" cy="524.34" fill="#132e65"></circle>
        <circle r="5" cx="208.23" cy="650.96" fill="#132e65"></circle>
        <circle r="5" cx="342.23" cy="382.65" fill="#132e65"></circle>
        <circle r="5" cx="356.29" cy="502.48" fill="#132e65"></circle>
        <circle r="5" cx="347.29" cy="709.54" fill="#132e65"></circle>
        <circle r="5" cx="495.32" cy="373.24" fill="#132e65"></circle>
        <circle r="5" cx="528.31" cy="493.67" fill="#132e65"></circle>
        <circle r="5" cx="532.12" cy="667.49" fill="#132e65"></circle>
        <circle r="5" cx="672.09" cy="245.16" fill="#132e65"></circle>
        <circle r="5" cx="681.63" cy="388.06" fill="#132e65"></circle>
        <circle r="5" cx="659.91" cy="560.5" fill="#132e65"></circle>
        <circle r="5" cx="657.77" cy="689.03" fill="#132e65"></circle>
        <circle r="5" cx="801.02" cy="213.32" fill="#132e65"></circle>
        <circle r="5" cx="833.62" cy="494.87" fill="#132e65"></circle>
        <circle r="5" cx="850.59" cy="678.28" fill="#132e65"></circle>
        <circle r="5" cx="970.81" cy="-39.11" fill="#132e65"></circle>
        <circle r="5" cx="1006.67" cy="95.77" fill="#132e65"></circle>
        <circle r="5" cx="983.31" cy="213.04" fill="#132e65"></circle>
        <circle r="5" cx="959.64" cy="383.72" fill="#132e65"></circle>
        <circle r="5" cx="1010.27" cy="556.52" fill="#132e65"></circle>
        <circle r="5" cx="939.92" cy="692.51" fill="#132e65"></circle>
        <circle r="5" cx="1114.43" cy="-81.19" fill="#132e65"></circle>
        <circle r="5" cx="1102.73" cy="92.36" fill="#132e65"></circle>
        <circle r="5" cx="1139.08" cy="201.98" fill="#132e65"></circle>
        <circle r="5" cx="1114.16" cy="397.9" fill="#132e65"></circle>
        <circle r="5" cx="1106.85" cy="545.38" fill="#132e65"></circle>
        <circle r="5" cx="1160.34" cy="711.35" fill="#132e65"></circle>
        <circle r="5" cx="1244" cy="-78.24" fill="#132e65"></circle>
        <circle r="5" cx="1300.8" cy="85.8" fill="#132e65"></circle>
        <circle r="5" cx="1268.71" cy="240.98" fill="#132e65"></circle>
        <circle r="5" cx="1272.23" cy="359.95" fill="#132e65"></circle>
        <circle r="5" cx="1289.43" cy="517.08" fill="#132e65"></circle>
        <circle r="5" cx="1305.2" cy="646.9" fill="#132e65"></circle>
        <circle r="5" cx="1400.78" cy="-88.2" fill="#132e65"></circle>
        <circle r="5" cx="1397.98" cy="72.97" fill="#132e65"></circle>
        <circle r="5" cx="1418.38" cy="190.16" fill="#132e65"></circle>
        <circle r="5" cx="1443.24" cy="408.11" fill="#132e65"></circle>
        <circle r="5" cx="1445.39" cy="554.39" fill="#132e65"></circle>
        <circle r="5" cx="1405.58" cy="656.5" fill="#132e65"></circle>
        <circle r="5" cx="1599.74" cy="-40" fill="#132e65"></circle>
        <circle r="5" cx="1605.82" cy="79.23" fill="#132e65"></circle>
        <circle r="5" cx="1551.76" cy="198.78" fill="#132e65"></circle>
        <circle r="5" cx="1598.59" cy="338.7" fill="#132e65"></circle>
        <circle r="5" cx="1600.77" cy="535.89" fill="#132e65"></circle>
        <circle r="5" cx="1597.24" cy="702.04" fill="#132e65"></circle>
        <path d="M224.55 555.04L224.55 555.04" stroke="hsl(228.39999999999998, 98%, 51%)" stroke-width="1.5"></path>
        <path d="M224.55 555.04L221.1 682.14" stroke="hsl(228.39999999999998, 98%, 51%)" stroke-width="1.5"></path>
        <path d="M224.55 555.04L98.58 644.6" stroke="hsl(228.39999999999998, 98%, 51%)" stroke-width="1.5"></path>
        <path d="M224.55 555.04L380.09 546.48" stroke="hsl(228.39999999999998, 98%, 51%)" stroke-width="1.5"></path>
        <path d="M224.55 555.04L381.54 686.49" stroke="hsl(228.39999999999998, 98%, 51%)" stroke-width="1.5"></path>
        <path d="M224.55 555.04L496.37 507.63" stroke="hsl(228.39999999999998, 98%, 51%)" stroke-width="1.5"></path>
        <path d="M224.55 555.04L489.68 650.63" stroke="hsl(228.39999999999998, 98%, 51%)" stroke-width="1.5"></path>
        <path d="M489.68 650.63L489.68 650.63" stroke="hsl(228.39999999999998, 98%, 51%)" stroke-width="1.5"></path>
        <path d="M489.68 650.63L381.54 686.49" stroke="hsl(228.39999999999998, 98%, 51%)" stroke-width="1.5"></path>
        <path d="M489.68 650.63L496.37 507.63" stroke="hsl(228.39999999999998, 98%, 51%)" stroke-width="1.5"></path>
        <path d="M489.68 650.63L380.09 546.48" stroke="hsl(228.39999999999998, 98%, 51%)" stroke-width="1.5"></path>
        <path d="M489.68 650.63L660.43 664.5" stroke="hsl(228.39999999999998, 98%, 51%)" stroke-width="1.5"></path>
        <path d="M489.68 650.63L649.2 538.37" stroke="hsl(228.39999999999998, 98%, 51%)" stroke-width="1.5"></path>
        <path d="M660.43 664.5L660.43 664.5" stroke="hsl(228.39999999999998, 98%, 51%)" stroke-width="1.5"></path>
        <path d="M660.43 664.5L649.2 538.37" stroke="hsl(228.39999999999998, 98%, 51%)" stroke-width="1.5"></path>
        <path d="M660.43 664.5L805.88 681.4" stroke="hsl(228.39999999999998, 98%, 51%)" stroke-width="1.5"></path>
        <path d="M791.66 367.59L791.66 367.59" stroke="hsl(228.39999999999998, 98%, 51%)" stroke-width="1.5"></path>
        <path d="M791.66 367.59L797.53 512.36" stroke="hsl(228.39999999999998, 98%, 51%)" stroke-width="1.5"></path>
        <path d="M791.66 367.59L647.6 407.03" stroke="hsl(228.39999999999998, 98%, 51%)" stroke-width="1.5"></path>
        <path d="M791.66 367.59L961.33 410.15" stroke="hsl(228.39999999999998, 98%, 51%)" stroke-width="1.5"></path>
        <path d="M791.66 367.59L958.86 254.98" stroke="hsl(228.39999999999998, 98%, 51%)" stroke-width="1.5"></path>
        <path d="M791.66 367.59L649.2 538.37" stroke="hsl(228.39999999999998, 98%, 51%)" stroke-width="1.5"></path>
        <path d="M791.66 367.59L939.05 540.95" stroke="hsl(228.39999999999998, 98%, 51%)" stroke-width="1.5"></path>
        <path d="M1143.98 410.66L1143.98 410.66" stroke="hsl(228.39999999999998, 98%, 51%)" stroke-width="1.5"></path>
        <path d="M1143.98 410.66L1119.34 513.46" stroke="hsl(228.39999999999998, 98%, 51%)" stroke-width="1.5"></path>
        <path d="M1143.98 410.66L1259.05 343.58" stroke="hsl(228.39999999999998, 98%, 51%)" stroke-width="1.5"></path>
        <path d="M1143.98 410.66L1253.55 501.11" stroke="hsl(228.39999999999998, 98%, 51%)" stroke-width="1.5"></path>
        <path d="M1143.98 410.66L961.33 410.15" stroke="hsl(228.39999999999998, 98%, 51%)" stroke-width="1.5"></path>
        <path d="M1143.98 410.66L1309.36 239.94" stroke="hsl(228.39999999999998, 98%, 51%)" stroke-width="1.5"></path>
        <path d="M1143.98 410.66L958.86 254.98" stroke="hsl(228.39999999999998, 98%, 51%)" stroke-width="1.5"></path>
        <path d="M1305.92 83.23L1305.92 83.23" stroke="hsl(228.39999999999998, 98%, 51%)" stroke-width="1.5"></path>
        <path d="M1305.92 83.23L1408.79 86.27" stroke="hsl(228.39999999999998, 98%, 51%)" stroke-width="1.5"></path>
        <path d="M1305.92 83.23L1250.33 -56.55" stroke="hsl(228.39999999999998, 98%, 51%)" stroke-width="1.5"></path>
        <path d="M1305.92 83.23L1309.36 239.94" stroke="hsl(228.39999999999998, 98%, 51%)" stroke-width="1.5"></path>
        <path d="M1305.92 83.23L1399.35 251.17" stroke="hsl(228.39999999999998, 98%, 51%)" stroke-width="1.5"></path>
        <path d="M1305.92 83.23L1420.13 -97.91" stroke="hsl(228.39999999999998, 98%, 51%)" stroke-width="1.5"></path>
        <path d="M1305.92 83.23L1160.09 -94.46" stroke="hsl(228.39999999999998, 98%, 51%)" stroke-width="1.5"></path>
        <path d="M1309.36 239.94L1309.36 239.94" stroke="hsl(228.39999999999998, 98%, 51%)" stroke-width="1.5"></path>
        <path d="M1309.36 239.94L1399.35 251.17" stroke="hsl(228.39999999999998, 98%, 51%)" stroke-width="1.5"></path>
        <path d="M1309.36 239.94L1259.05 343.58" stroke="hsl(228.39999999999998, 98%, 51%)" stroke-width="1.5"></path>
        <path d="M1309.36 239.94L1408.79 86.27" stroke="hsl(228.39999999999998, 98%, 51%)" stroke-width="1.5"></path>
        <path d="M1253.55 501.11L1253.55 501.11" stroke="hsl(228.39999999999998, 98%, 51%)" stroke-width="1.5"></path>
        <path d="M1253.55 501.11L1119.34 513.46" stroke="hsl(228.39999999999998, 98%, 51%)" stroke-width="1.5"></path>
        <path d="M1253.55 501.11L1259.05 343.58" stroke="hsl(228.39999999999998, 98%, 51%)" stroke-width="1.5"></path>
        <path d="M1583.9 342.73L1583.9 342.73" stroke="hsl(228.39999999999998, 98%, 51%)" stroke-width="1.5"></path>
        <path d="M1583.9 342.73L1569.87 212.94" stroke="hsl(228.39999999999998, 98%, 51%)" stroke-width="1.5"></path>
        <path d="M1583.9 342.73L1421.85 401.45" stroke="hsl(228.39999999999998, 98%, 51%)" stroke-width="1.5"></path>
        <path d="M-104.23 514.14L-104.23 514.14" stroke="hsl(228.39999999999998, 98%, 51%)" stroke-width="1.5"></path>
        <path d="M-104.23 514.14L-50.7 664.09" stroke="hsl(228.39999999999998, 98%, 51%)" stroke-width="1.5"></path>
        <path d="M-104.23 514.14L98.58 644.6" stroke="hsl(228.39999999999998, 98%, 51%)" stroke-width="1.5"></path>
        <path d="M-104.23 514.14L224.55 555.04" stroke="hsl(228.39999999999998, 98%, 51%)" stroke-width="1.5"></path>
        <path d="M-104.23 514.14L221.1 682.14" stroke="hsl(228.39999999999998, 98%, 51%)" stroke-width="1.5"></path>
        <path d="M-104.23 514.14L380.09 546.48" stroke="hsl(228.39999999999998, 98%, 51%)" stroke-width="1.5"></path>
        <path d="M-104.23 514.14L381.54 686.49" stroke="hsl(228.39999999999998, 98%, 51%)" stroke-width="1.5"></path>
        <path d="M-50.7 664.09L-50.7 664.09" stroke="hsl(228.39999999999998, 98%, 51%)" stroke-width="1.5"></path>
        <path d="M-50.7 664.09L98.58 644.6" stroke="hsl(228.39999999999998, 98%, 51%)" stroke-width="1.5"></path>
        <path d="M-50.7 664.09L221.1 682.14" stroke="hsl(228.39999999999998, 98%, 51%)" stroke-width="1.5"></path>
        <path d="M-50.7 664.09L224.55 555.04" stroke="hsl(228.39999999999998, 98%, 51%)" stroke-width="1.5"></path>
        <path d="M-50.7 664.09L381.54 686.49" stroke="hsl(228.39999999999998, 98%, 51%)" stroke-width="1.5"></path>
        <path d="M-50.7 664.09L380.09 546.48" stroke="hsl(228.39999999999998, 98%, 51%)" stroke-width="1.5"></path>
        <path d="M98.58 644.6L98.58 644.6" stroke="hsl(228.39999999999998, 98%, 51%)" stroke-width="1.5"></path>
        <path d="M98.58 644.6L221.1 682.14" stroke="hsl(228.39999999999998, 98%, 51%)" stroke-width="1.5"></path>
        <path d="M98.58 644.6L381.54 686.49" stroke="hsl(228.39999999999998, 98%, 51%)" stroke-width="1.5"></path>
        <path d="M98.58 644.6L380.09 546.48" stroke="hsl(228.39999999999998, 98%, 51%)" stroke-width="1.5"></path>
        <path d="M221.1 682.14L221.1 682.14" stroke="hsl(228.39999999999998, 98%, 51%)" stroke-width="1.5"></path>
        <path d="M221.1 682.14L381.54 686.49" stroke="hsl(228.39999999999998, 98%, 51%)" stroke-width="1.5"></path>
        <path d="M221.1 682.14L380.09 546.48" stroke="hsl(228.39999999999998, 98%, 51%)" stroke-width="1.5"></path>
        <path d="M221.1 682.14L489.68 650.63" stroke="hsl(228.39999999999998, 98%, 51%)" stroke-width="1.5"></path>
        <path d="M380.09 546.48L380.09 546.48" stroke="hsl(228.39999999999998, 98%, 51%)" stroke-width="1.5"></path>
        <path d="M380.09 546.48L496.37 507.63" stroke="hsl(228.39999999999998, 98%, 51%)" stroke-width="1.5"></path>
        <path d="M380.09 546.48L381.54 686.49" stroke="hsl(228.39999999999998, 98%, 51%)" stroke-width="1.5"></path>
        <path d="M381.54 686.49L381.54 686.49" stroke="hsl(228.39999999999998, 98%, 51%)" stroke-width="1.5"></path>
        <path d="M542.63 402.61L542.63 402.61" stroke="hsl(228.39999999999998, 98%, 51%)" stroke-width="1.5"></path>
        <path d="M542.63 402.61L647.6 407.03" stroke="hsl(228.39999999999998, 98%, 51%)" stroke-width="1.5"></path>
        <path d="M542.63 402.61L496.37 507.63" stroke="hsl(228.39999999999998, 98%, 51%)" stroke-width="1.5"></path>
        <path d="M542.63 402.61L649.2 538.37" stroke="hsl(228.39999999999998, 98%, 51%)" stroke-width="1.5"></path>
        <path d="M542.63 402.61L380.09 546.48" stroke="hsl(228.39999999999998, 98%, 51%)" stroke-width="1.5"></path>
        <path d="M496.37 507.63L496.37 507.63" stroke="hsl(228.39999999999998, 98%, 51%)" stroke-width="1.5"></path>
        <path d="M647.6 407.03L647.6 407.03" stroke="hsl(228.39999999999998, 98%, 51%)" stroke-width="1.5"></path>
        <path d="M647.6 407.03L649.2 538.37" stroke="hsl(228.39999999999998, 98%, 51%)" stroke-width="1.5"></path>
        <path d="M647.6 407.03L496.37 507.63" stroke="hsl(228.39999999999998, 98%, 51%)" stroke-width="1.5"></path>
        <path d="M647.6 407.03L797.53 512.36" stroke="hsl(228.39999999999998, 98%, 51%)" stroke-width="1.5"></path>
        <path d="M647.6 407.03L660.43 664.5" stroke="hsl(228.39999999999998, 98%, 51%)" stroke-width="1.5"></path>
        <path d="M649.2 538.37L649.2 538.37" stroke="hsl(228.39999999999998, 98%, 51%)" stroke-width="1.5"></path>
        <path d="M649.2 538.37L797.53 512.36" stroke="hsl(228.39999999999998, 98%, 51%)" stroke-width="1.5"></path>
        <path d="M649.2 538.37L496.37 507.63" stroke="hsl(228.39999999999998, 98%, 51%)" stroke-width="1.5"></path>
        <path d="M797.53 512.36L797.53 512.36" stroke="hsl(228.39999999999998, 98%, 51%)" stroke-width="1.5"></path>
        <path d="M797.53 512.36L939.05 540.95" stroke="hsl(228.39999999999998, 98%, 51%)" stroke-width="1.5"></path>
        <path d="M797.53 512.36L805.88 681.4" stroke="hsl(228.39999999999998, 98%, 51%)" stroke-width="1.5"></path>
        <path d="M797.53 512.36L961.33 410.15" stroke="hsl(228.39999999999998, 98%, 51%)" stroke-width="1.5"></path>
        <path d="M805.88 681.4L805.88 681.4" stroke="hsl(228.39999999999998, 98%, 51%)" stroke-width="1.5"></path>
        <path d="M805.88 681.4L958.08 689.49" stroke="hsl(228.39999999999998, 98%, 51%)" stroke-width="1.5"></path>
        <path d="M805.88 681.4L939.05 540.95" stroke="hsl(228.39999999999998, 98%, 51%)" stroke-width="1.5"></path>
        <path d="M805.88 681.4L649.2 538.37" stroke="hsl(228.39999999999998, 98%, 51%)" stroke-width="1.5"></path>
        <path d="M805.88 681.4L961.33 410.15" stroke="hsl(228.39999999999998, 98%, 51%)" stroke-width="1.5"></path>
        <path d="M958.86 254.98L958.86 254.98" stroke="hsl(228.39999999999998, 98%, 51%)" stroke-width="1.5"></path>
        <path d="M958.86 254.98L961.33 410.15" stroke="hsl(228.39999999999998, 98%, 51%)" stroke-width="1.5"></path>
        <path d="M961.33 410.15L961.33 410.15" stroke="hsl(228.39999999999998, 98%, 51%)" stroke-width="1.5"></path>
        <path d="M961.33 410.15L939.05 540.95" stroke="hsl(228.39999999999998, 98%, 51%)" stroke-width="1.5"></path>
        <path d="M939.05 540.95L939.05 540.95" stroke="hsl(228.39999999999998, 98%, 51%)" stroke-width="1.5"></path>
        <path d="M939.05 540.95L958.08 689.49" stroke="hsl(228.39999999999998, 98%, 51%)" stroke-width="1.5"></path>
        <path d="M939.05 540.95L1119.34 513.46" stroke="hsl(228.39999999999998, 98%, 51%)" stroke-width="1.5"></path>
        <path d="M958.08 689.49L958.08 689.49" stroke="hsl(228.39999999999998, 98%, 51%)" stroke-width="1.5"></path>
        <path d="M958.08 689.49L1119.34 513.46" stroke="hsl(228.39999999999998, 98%, 51%)" stroke-width="1.5"></path>
        <path d="M958.08 689.49L797.53 512.36" stroke="hsl(228.39999999999998, 98%, 51%)" stroke-width="1.5"></path>
        <path d="M1160.09 -94.46L1160.09 -94.46" stroke="hsl(228.39999999999998, 98%, 51%)" stroke-width="1.5"></path>
        <path d="M1160.09 -94.46L1250.33 -56.55" stroke="hsl(228.39999999999998, 98%, 51%)" stroke-width="1.5"></path>
        <path d="M1160.09 -94.46L1420.13 -97.91" stroke="hsl(228.39999999999998, 98%, 51%)" stroke-width="1.5"></path>
        <path d="M1160.09 -94.46L1408.79 86.27" stroke="hsl(228.39999999999998, 98%, 51%)" stroke-width="1.5"></path>
        <path d="M1160.09 -94.46L1309.36 239.94" stroke="hsl(228.39999999999998, 98%, 51%)" stroke-width="1.5"></path>
        <path d="M1119.34 513.46L1119.34 513.46" stroke="hsl(228.39999999999998, 98%, 51%)" stroke-width="1.5"></path>
        <path d="M1250.33 -56.55L1250.33 -56.55" stroke="hsl(228.39999999999998, 98%, 51%)" stroke-width="1.5"></path>
        <path d="M1250.33 -56.55L1420.13 -97.91" stroke="hsl(228.39999999999998, 98%, 51%)" stroke-width="1.5"></path>
        <path d="M1259.05 343.58L1259.05 343.58" stroke="hsl(228.39999999999998, 98%, 51%)" stroke-width="1.5"></path>
        <path d="M1420.13 -97.91L1420.13 -97.91" stroke="hsl(228.39999999999998, 98%, 51%)" stroke-width="1.5"></path>
        <path d="M1420.13 -97.91L1543.62 -38.53" stroke="hsl(228.39999999999998, 98%, 51%)" stroke-width="1.5"></path>
        <path d="M1420.13 -97.91L1408.79 86.27" stroke="hsl(228.39999999999998, 98%, 51%)" stroke-width="1.5"></path>
        <path d="M1420.13 -97.91L1549.61 49.36" stroke="hsl(228.39999999999998, 98%, 51%)" stroke-width="1.5"></path>
        <path d="M1408.79 86.27L1408.79 86.27" stroke="hsl(228.39999999999998, 98%, 51%)" stroke-width="1.5"></path>
        <path d="M1408.79 86.27L1549.61 49.36" stroke="hsl(228.39999999999998, 98%, 51%)" stroke-width="1.5"></path>
        <path d="M1408.79 86.27L1399.35 251.17" stroke="hsl(228.39999999999998, 98%, 51%)" stroke-width="1.5"></path>
        <path d="M1408.79 86.27L1543.62 -38.53" stroke="hsl(228.39999999999998, 98%, 51%)" stroke-width="1.5"></path>
        <path d="M1399.35 251.17L1399.35 251.17" stroke="hsl(228.39999999999998, 98%, 51%)" stroke-width="1.5"></path>
        <path d="M1399.35 251.17L1421.85 401.45" stroke="hsl(228.39999999999998, 98%, 51%)" stroke-width="1.5"></path>
        <path d="M1399.35 251.17L1259.05 343.58" stroke="hsl(228.39999999999998, 98%, 51%)" stroke-width="1.5"></path>
        <path d="M1399.35 251.17L1569.87 212.94" stroke="hsl(228.39999999999998, 98%, 51%)" stroke-width="1.5"></path>
        <path d="M1421.85 401.45L1421.85 401.45" stroke="hsl(228.39999999999998, 98%, 51%)" stroke-width="1.5"></path>
        <path d="M1421.85 401.45L1446.39 532.66" stroke="hsl(228.39999999999998, 98%, 51%)" stroke-width="1.5"></path>
        <path d="M1421.85 401.45L1259.05 343.58" stroke="hsl(228.39999999999998, 98%, 51%)" stroke-width="1.5"></path>
        <path d="M1446.39 532.66L1446.39 532.66" stroke="hsl(228.39999999999998, 98%, 51%)" stroke-width="1.5"></path>
        <path d="M1446.39 532.66L1407.11 662.69" stroke="hsl(228.39999999999998, 98%, 51%)" stroke-width="1.5"></path>
        <path d="M1446.39 532.66L1596.62 549.75" stroke="hsl(228.39999999999998, 98%, 51%)" stroke-width="1.5"></path>
        <path d="M1446.39 532.66L1555.41 651.51" stroke="hsl(228.39999999999998, 98%, 51%)" stroke-width="1.5"></path>
        <path d="M1446.39 532.66L1253.55 501.11" stroke="hsl(228.39999999999998, 98%, 51%)" stroke-width="1.5"></path>
        <path d="M1407.11 662.69L1407.11 662.69" stroke="hsl(228.39999999999998, 98%, 51%)" stroke-width="1.5"></path>
        <path d="M1407.11 662.69L1555.41 651.51" stroke="hsl(228.39999999999998, 98%, 51%)" stroke-width="1.5"></path>
        <path d="M1543.62 -38.53L1543.62 -38.53" stroke="hsl(228.39999999999998, 98%, 51%)" stroke-width="1.5"></path>
        <path d="M1543.62 -38.53L1549.61 49.36" stroke="hsl(228.39999999999998, 98%, 51%)" stroke-width="1.5"></path>
        <path d="M1543.62 -38.53L1569.87 212.94" stroke="hsl(228.39999999999998, 98%, 51%)" stroke-width="1.5"></path>
        <path d="M1549.61 49.36L1549.61 49.36" stroke="hsl(228.39999999999998, 98%, 51%)" stroke-width="1.5"></path>
        <path d="M1569.87 212.94L1569.87 212.94" stroke="hsl(228.39999999999998, 98%, 51%)" stroke-width="1.5"></path>
        <path d="M1569.87 212.94L1549.61 49.36" stroke="hsl(228.39999999999998, 98%, 51%)" stroke-width="1.5"></path>
        <path d="M1596.62 549.75L1596.62 549.75" stroke="hsl(228.39999999999998, 98%, 51%)" stroke-width="1.5"></path>
        <path d="M1596.62 549.75L1555.41 651.51" stroke="hsl(228.39999999999998, 98%, 51%)" stroke-width="1.5"></path>
        <path d="M1596.62 549.75L1583.9 342.73" stroke="hsl(228.39999999999998, 98%, 51%)" stroke-width="1.5"></path>
        <path d="M1596.62 549.75L1407.11 662.69" stroke="hsl(228.39999999999998, 98%, 51%)" stroke-width="1.5"></path>
        <path d="M1596.62 549.75L1421.85 401.45" stroke="hsl(228.39999999999998, 98%, 51%)" stroke-width="1.5"></path>
        <path d="M1596.62 549.75L1569.87 212.94" stroke="hsl(228.39999999999998, 98%, 51%)" stroke-width="1.5"></path>
        <path d="M1555.41 651.51L1555.41 651.51" stroke="hsl(228.39999999999998, 98%, 51%)" stroke-width="1.5"></path>
        <path d="M1555.41 651.51L1421.85 401.45" stroke="hsl(228.39999999999998, 98%, 51%)" stroke-width="1.5"></path>
        <path d="M1555.41 651.51L1583.9 342.73" stroke="hsl(228.39999999999998, 98%, 51%)" stroke-width="1.5"></path>
        <path d="M1555.41 651.51L1253.55 501.11" stroke="hsl(228.39999999999998, 98%, 51%)" stroke-width="1.5"></path>
        <circle r="25" cx="224.55" cy="555.04" fill="url(&quot;#SvgjsRadialGradient1001&quot;)"></circle>
        <circle r="25" cx="489.68" cy="650.63" fill="url(&quot;#SvgjsRadialGradient1001&quot;)"></circle>
        <circle r="25" cx="660.43" cy="664.5" fill="url(&quot;#SvgjsRadialGradient1001&quot;)"></circle>
        <circle r="25" cx="791.66" cy="367.59" fill="url(&quot;#SvgjsRadialGradient1001&quot;)"></circle>
        <circle r="25" cx="1143.98" cy="410.66" fill="url(&quot;#SvgjsRadialGradient1001&quot;)"></circle>
        <circle r="25" cx="1305.92" cy="83.23" fill="url(&quot;#SvgjsRadialGradient1001&quot;)"></circle>
        <circle r="25" cx="1309.36" cy="239.94" fill="url(&quot;#SvgjsRadialGradient1001&quot;)"></circle>
        <circle r="25" cx="1253.55" cy="501.11" fill="url(&quot;#SvgjsRadialGradient1001&quot;)"></circle>
        <circle r="25" cx="1583.9" cy="342.73" fill="url(&quot;#SvgjsRadialGradient1001&quot;)"></circle>
        <circle r="5" cx="-104.23" cy="514.14" fill="#8194e3"></circle>
        <circle r="5" cx="-50.7" cy="664.09" fill="#8194e3"></circle>
        <circle r="5" cx="98.58" cy="644.6" fill="#8194e3"></circle>
        <circle r="5" cx="221.1" cy="682.14" fill="#8194e3"></circle>
        <circle r="5" cx="380.09" cy="546.48" fill="#8194e3"></circle>
        <circle r="5" cx="381.54" cy="686.49" fill="#8194e3"></circle>
        <circle r="5" cx="542.63" cy="402.61" fill="#8194e3"></circle>
        <circle r="5" cx="496.37" cy="507.63" fill="#8194e3"></circle>
        <circle r="5" cx="647.6" cy="407.03" fill="#8194e3"></circle>
        <circle r="5" cx="649.2" cy="538.37" fill="#8194e3"></circle>
        <circle r="5" cx="797.53" cy="512.36" fill="#8194e3"></circle>
        <circle r="5" cx="805.88" cy="681.4" fill="#8194e3"></circle>
        <circle r="5" cx="958.86" cy="254.98" fill="#8194e3"></circle>
        <circle r="5" cx="961.33" cy="410.15" fill="#8194e3"></circle>
        <circle r="5" cx="939.05" cy="540.95" fill="#8194e3"></circle>
        <circle r="5" cx="958.08" cy="689.49" fill="#8194e3"></circle>
        <circle r="5" cx="1160.09" cy="-94.46" fill="#8194e3"></circle>
        <circle r="5" cx="1119.34" cy="513.46" fill="#8194e3"></circle>
        <circle r="5" cx="1250.33" cy="-56.55" fill="#8194e3"></circle>
        <circle r="5" cx="1259.05" cy="343.58" fill="#8194e3"></circle>
        <circle r="5" cx="1420.13" cy="-97.91" fill="#8194e3"></circle>
        <circle r="5" cx="1408.79" cy="86.27" fill="#8194e3"></circle>
        <circle r="5" cx="1399.35" cy="251.17" fill="#8194e3"></circle>
        <circle r="5" cx="1421.85" cy="401.45" fill="#8194e3"></circle>
        <circle r="5" cx="1446.39" cy="532.66" fill="#8194e3"></circle>
        <circle r="5" cx="1407.11" cy="662.69" fill="#8194e3"></circle>
        <circle r="5" cx="1543.62" cy="-38.53" fill="#8194e3"></circle>
        <circle r="5" cx="1549.61" cy="49.36" fill="#8194e3"></circle>
        <circle r="5" cx="1569.87" cy="212.94" fill="#8194e3"></circle>
        <circle r="5" cx="1596.62" cy="549.75" fill="#8194e3"></circle>
        <circle r="5" cx="1555.41" cy="651.51" fill="#8194e3"></circle>
    </g>
    <defs>
        <mask id="SvgjsMask1000">
            <rect width="1440" height="560" fill="#ffffff"></rect>
        </mask>
        <radialGradient id="SvgjsRadialGradient1001">
            <stop stop-color="#ffffff" offset="0.1"></stop>
            <stop stop-color="rgb(7, 32, 122)" offset="0.2"></stop>
            <stop stop-color="rgba(0, 0, 0, 0)" offset="1"></stop>
        </radialGradient>
    </defs>
</svg>